<?xml version="1.0"?>
<svg xmlns="http://www.w3.org/2000/svg" xmlns:xlink="http://www.w3.org/1999/xlink" xmlns:svgjs="http://svgjs.com/svgjs" version="1.1" width="512" height="512" x="0" y="0" viewBox="0 0 46 60" style="enable-background:new 0 0 512 512" xml:space="preserve" class=""><g><path xmlns="http://www.w3.org/2000/svg" id="Shape" d="m40 4h-5c0-2.209139-1.790861-4-4-4h-16c-2.209139 0-4 1.790861-4 4h-5c-3.31233757.00330738-5.99669262 2.68766243-6 6v4c0 1.6568542 1.34314575 3 3 3h5.014c-.02983703.9077227.01766788 1.8163377.142 2.716.47048338 2.0389629 1.79446258 3.7774368 3.635 4.773-.3276321 2.7092678.6859481 5.4081677 2.716 7.232.18.173.333.346.493.519v1.76h-13c-1.1045695 0-2 .8954305-2 2v.221c-.00137222 1.641785.4483253 3.2523939 1.3 4.656-.84763984 1.5749293-1.29413505 3.3344639-1.3 5.123v11c0 .7956495.31607052 1.5587112.87867966 2.1213203.56260913.5626092 1.32567087.8786797 2.12132034.8786797h40c1.6568542 0 3-1.3431458 3-3v-11c-.0077595-1.7638387-.4413852-3.4997141-1.264-5.06.8267467-1.3333408 1.2645358-2.8711445 1.264-4.44v-.5c0-1.1045695-.8954305-2-2-2h-13v-1.76c.159-.173.313-.346.493-.519 2.0301961-1.8237338 3.0438055-4.5227114 2.716-7.232 1.8506081-1.0036321 3.1778304-2.7573444 3.641-4.811.1189026-.8874259.1660554-1.7829945.141-2.678h5.009c1.6568542 0 3-1.3431458 3-3v-4c-.0033074-3.31233757-2.6876624-5.99669262-6-6zm-29.869 15.4c-.1048252-.7954264-.14329122-1.5981951-.115-2.4h1.146c.116 1.2.273 2.1.405 2.846.1509128.7431131.2451838 1.4966122.282 2.254-.8367496-.7018674-1.43668-1.6447149-1.718-2.7zm18.869 34.6h-2.487c.3306024-.6140861.4982719-1.3026675.487-2 .0081018-.8956914-.231744-1.7761644-.693-2.544-.2027751-.3871734-.1702879-.8555304.084-1.211.4173485-.6730353.6290162-1.453321.609-2.245.0173802-1.2388773-.4431784-2.4368311-1.286-3.345 1.2285731-.3077626 2.3591034-.9218821 3.286-1.785zm-8-2c-.00638-.5314425.1341168-1.0543258.406-1.511.5952692-1.0424651.5499653-2.3318836-.117-3.33-.2059052-.3504536-.3062564-.7529004-.289-1.159.0457232-1.27729.824894-2.413321 2-2.916 1.175106.502679 1.9542768 1.63871 2 2.916.0172564.4060996-.0830948.8085464-.289 1.159-.6670195.9977313-.7123283 2.2869026-.117 3.329.2717721.4570869.4122533.9802581.406 1.512 0 1.1045695-.8954305 2-2 2s-2-.8954305-2-2zm-1.391-3.755c.2542879.3554696.2867751.8238266.084 1.211-.461256.7678356-.7011018 1.6483086-.693 2.544-.0112719.6973325.1563976 1.3859139.487 2h-2.487v-13.13c.9268966.8631179 2.0574269 1.4772374 3.286 1.785-.8428216.9081689-1.3033802 2.1061227-1.286 3.345-.0200162.791679.1916515 1.5719647.609 2.245zm-2.609 7.755h12c.0041446.7042532.1960759 1.3946535.556 2h-13.112c.3599241-.6053465.5518554-1.2957468.556-2zm6-15c-2.768 0-6-1.31-6-5v-1.06c1.024 1.591 2.031 3.06 4.44 3.06h3.12c2.409 0 3.416-1.469 4.44-3.06v1.06c0 3.69-3.232 5-6 5zm-12-5v.5c0 1.3807119-1.11928813 2.5-2.5 2.5s-2.5-1.1192881-2.5-2.5v-.5zm-9 0h2v.5c0 2.4852814 2.01471863 4.5 4.5 4.5 2.4852814 0 4.5-2.0147186 4.5-4.5v-.5h2v.5c-.002869 1.8030979-.7534443 3.5242464-2.0728323 4.7532238s-3.08939982 1.8556937-4.8881677 1.7307762c-1.90575571-.1473805-3.64498708-1.141594-4.739-2.709-.015-.024-.03-.047-.048-.071-.82852035-1.1616193-1.26690648-2.5562614-1.252-3.983zm0 21v-11c.00244056-1.1646306.2324157-2.3175636.677-3.394 1.40264777 1.3880497 3.25487039 2.2295822 5.223 2.373 1.04676946.0725393 2.09790971-.0498677 3.1-.361v9.382h-2v-6c0-.5522847-.44771525-1-1-1s-1 .4477153-1 1v10h-4c-.55228475 0-1-.4477153-1-1zm7 1v-2h2c1.1045695 0 2-.8954305 2-2v-10.3c.5456179-.3381584 1.0511742-.7370346 1.507-1.189.174-.174.336-.357.493-.543v14.032c0 1.1045695-.8954305 2-2 2zm22-2v-14.138c.5684547.7008779 1.2433223 1.3082588 2 1.8v10.338c0 1.1045695.8954305 2 2 2h2v2h-4c-1.1045695 0-2-.8954305-2-2zm13 1c0 .5522847-.4477153 1-1 1h-4v-10c0-.5522847-.4477153-1-1-1s-1 .4477153-1 1v6h-2v-9.391c.8032349.2604962 1.6425816.3924562 2.487.391 2.1800423-.0015907 4.2761366-.8407445 5.855-2.344.4310922 1.0623522.6544592 2.1975183.658 3.344zm-4-21v.5c0 1.3807119-1.1192881 2.5-2.5 2.5s-2.5-1.1192881-2.5-2.5v-.5zm-7 0v.5c.0000001 2.4852813 2.0147187 4.4999998 4.5 4.4999998s4.4999999-2.0147185 4.5-4.4999998v-.5h2.0000023l-.0000023.5c.0011427 1.3534193-.4247369 2.6727013-1.217 3.77l-.017.023c-.203132.2838058-.4281516.5512882-.673.8-1.331806 1.3317452-3.1751068 2.021433-5.054 1.891-3.4720061-.3278835-6.1046645-3.2761644-6.039-6.763v-.221zm-2.894-5.721c-1.0382816 1.0347414-1.9451135 2.1934711-2.7 3.45-1.042 1.616-1.516 2.271-2.846 2.271h-3.12c-1.33 0-1.8-.655-2.842-2.271-.7546429-1.2566965-1.6614972-2.4154548-2.7-3.45-2.265-2.178-2.183-4-2.079-6.312v-.059-.033c.009-.474.043-.953.043-1.445-.0128925-.9868358-.1213997-1.9700992-.324-2.936-.125-.7-.262-1.47-.368-2.494h19.662c-.106 1.024-.243 1.8-.368 2.494-.2026003.9659008-.3111075 1.9491642-.324 2.936 0 .492.034.972.043 1.445v.033.059c.107 2.309.189 4.133-2.077 6.312zm5.769-10.915c-.2756055 1.0693312-.8783376 2.0258713-1.724 2.736.0368172-.7567264.1310887-1.5095607.282-2.252.132-.742.289-1.645.405-2.846h1.152c.0290611.789172-.0094124 1.5793837-.115 2.362zm8.125-5.364c0 .5522847-.4477153 1-1 1h-40c-.55228475 0-1-.4477153-1-1v-4c0-2.209139 1.790861-4 4-4h5v6c0 .5522847.4477153 1 1 1s1-.4477153 1-1v-8c0-1.1045695.8954305-2 2-2h16c1.1045695 0 2 .8954305 2 2v8c0 .5522847.4477153 1 1 1s1-.4477153 1-1v-6h5c2.209139 0 4 1.790861 4 4z" fill="#ffce31" data-original="#000000" style="" class=""/></g></svg>
