<svg height="512" viewBox="0 0 128 128" width="512" xmlns="http://www.w3.org/2000/svg" xmlns:xlink="http://www.w3.org/1999/xlink"><linearGradient id="a" gradientUnits="userSpaceOnUse" x1="107.462" x2="25.121" y1="106.565" y2="24.224"><stop offset="0" stop-color="#f57412"/><stop offset="1" stop-color="#ffce31"/></linearGradient><path d="m97.994 58.833v4.667a1.75 1.75 0 1 1 -3.5 0v-4.667a1.75 1.75 0 0 1 3.5 0zm-72.053 13.067v-29.374a34.277 34.277 0 0 1 68.553 0v9.141a1.75 1.75 0 0 0 3.5 0v-9.141a37.777 37.777 0 0 0 -75.553 0v29.374a46.982 46.982 0 0 0 5.669 22.862 1.75 1.75 0 1 0 3.069-1.683 43.518 43.518 0 0 1 -5.238-21.179zm78.972 31.578c-4.526-8.778-6.919-19.703-6.919-31.578v-1.37a1.75 1.75 0 0 0 -3.5 0v1.37c0 12.428 2.527 23.9 7.307 33.18a2.2 2.2 0 0 1 -.273 2.45 2.276 2.276 0 0 1 -2.43.752l-2.248-.659a5.831 5.831 0 0 0 -6.889 3.13l-2.606 5.647a2.292 2.292 0 0 1 -3.141 1.072l-4.454-2.322a5.793 5.793 0 0 0 -8.1 3.1 2.308 2.308 0 0 1 -2.8 1.4c-10.574-3.124-19.379-7.505-26.171-13.022a49.541 49.541 0 0 1 -6.27-6.045 1.75 1.75 0 1 0 -2.647 2.289 53.042 53.042 0 0 0 6.711 6.474c7.151 5.809 16.366 10.405 27.386 13.661a5.754 5.754 0 0 0 1.627.236 5.824 5.824 0 0 0 5.444-3.767 2.292 2.292 0 0 1 3.207-1.229l4.454 2.324a5.793 5.793 0 0 0 7.938-2.708l2.606-5.645a2.31 2.31 0 0 1 2.726-1.24l2.248.66a5.736 5.736 0 0 0 6.114-1.883 5.66 5.66 0 0 0 .68-6.274zm-70.684-18.106a38.99 38.99 0 0 1 -2.288-13.472 1.75 1.75 0 0 0 -3.5 0 42.522 42.522 0 0 0 2.5 14.674 1.75 1.75 0 0 0 3.287-1.2zm11.549-49.491c4.346 0 7.75 4.429 7.75 10.083s-3.4 10.083-7.75 10.083-7.75-4.429-7.75-10.083 3.405-10.083 7.75-10.083zm0 3.5c-2.3 0-4.25 3.015-4.25 6.583s1.947 6.583 4.25 6.583 4.25-3.014 4.25-6.583-1.946-6.583-4.25-6.583zm28.8-3.5c4.346 0 7.75 4.429 7.75 10.083s-3.4 10.083-7.75 10.083-7.75-4.429-7.75-10.083 3.407-10.083 7.753-10.083zm0 3.5c-2.3 0-4.25 3.015-4.25 6.583s1.946 6.583 4.25 6.583 4.25-3.014 4.25-6.583-1.943-6.583-4.247-6.583z" fill="url(#a)"/></svg>