<svg height="512" viewBox="0 0 64 64" width="512" xmlns="http://www.w3.org/2000/svg"><g id="outline"><linearGradient id="a" gradientUnits="userSpaceOnUse" x1="107.462" x2="25.121" y1="106.565" y2="24.224"><stop offset="0" stop-color="#f57412"/><stop offset="1" stop-color="#ffce31"/></linearGradient><path fill="url(#a)" d="m57 27h-3v-1a1 1 0 0 0 -1-1h-15.124a3.764 3.764 0 0 0 -2.876-2.876v-4.124h13a1 1 0 0 0 1-1v-10a1 1 0 0 0 -1-1h-32a1 1 0 0 0 -1 1v10a1 1 0 0 0 1 1h13v4h-23a3.827 3.827 0 0 0 -4 4v12a3.827 3.827 0 0 0 4 4h23v4h-13a1 1 0 0 0 -1 1v10a1 1 0 0 0 1 1h32a1 1 0 0 0 1-1v-10a1 1 0 0 0 -1-1h-13v-4.124a3.764 3.764 0 0 0 2.876-2.876h15.124a1 1 0 0 0 1-1v-1h3a5 5 0 0 0 0-10zm-15-19h5v3h-5zm0 5h5v3h-5zm-7-5h5v3h-5zm0 5h5v3h-5zm-29 27a1.856 1.856 0 0 1 -2-2v-12a1.856 1.856 0 0 1 2-2zm4 0h-2v-16h2zm16 0h-14v-16h14zm-4 16h-5v-3h5zm0-5h-5v-3h5zm7 5h-5v-3h5zm0-5h-5v-3h5zm2-43h2v14h-2zm-7 0h5v3h-5zm-2 8h-5v-3h5zm0-5h-5v-3h5zm2 5v-3h5v3zm9 40h-2v-14h2zm7 0h-5v-3h5zm2-8h5v3h-5zm0 5h5v3h-5zm-2-5v3h-5v-3zm-4-10a1.874 1.874 0 0 1 -2 2h-6v-3h8zm0-3h-8v-2h8zm0-4h-8v-2h8zm0-4h-8v-3h6a1.874 1.874 0 0 1 2 2zm16 10h-14v-10h14zm5-2h-3v-6h3a3 3 0 0 1 0 6z"/><path d="m14 36h10v2h-10z"/><path d="m47 29h2v2h-2z"/><path d="m43 31h2v2h-2z"/><path d="m16.707 33.707 1.008-1.007a2.951 2.951 0 0 0 1.285.3 3 3 0 0 0 3-3 2.951 2.951 0 0 0 -.3-1.285l1.008-1.008-1.414-1.414-1.009 1.007a2.951 2.951 0 0 0 -1.285-.3 3 3 0 0 0 -3 3 2.951 2.951 0 0 0 .3 1.285l-1.008 1.008zm2.293-4.707a1 1 0 1 1 -1 1 1 1 0 0 1 1-1z" /></g></svg>
